<svg width="80" height="80" viewBox="0 0 80 80" fill="none" xmlns="http://www.w3.org/2000/svg">
<g id="Black and White Collection 9">
<path id="Vector" d="M72.7668 1.60004H62.7431C59.6502 1.60004 57.1428 4.05715 57.1428 7.08835V16.9116C57.1428 19.9428 59.6502 22.4 62.7431 22.4H72.7668C75.8599 22.4 78.3673 19.9428 78.3673 16.9116V7.08835C78.3673 4.05715 75.8599 1.60004 72.7668 1.60004Z" fill="#00A6FB"/>
<path id="Vector_2" d="M33.5132 22.9855H42.3153C45.9576 23.1884 49.4224 24.5946 52.1443 26.9751L52.4745 27.3346C54.9161 29.9943 56.353 33.3943 56.5453 36.9671V45.5572C56.5453 47.0536 57.152 48.489 58.2319 49.5472C59.3117 50.6055 60.7764 51.2 62.3035 51.2H72.6093C74.1364 51.2 75.601 50.6055 76.6808 49.5472C77.7607 48.489 78.3674 47.0536 78.3674 45.5572V35.4575C78.3674 33.9608 77.7607 32.5256 76.6808 31.4674C75.601 30.4092 74.1364 29.8146 72.6093 29.8146H63.8438C60.1982 29.626 56.7288 28.2178 54.0147 25.825L53.648 25.5015C51.2141 22.837 49.7783 19.4399 49.577 15.869V7.24291C49.577 5.74643 48.9705 4.31108 47.8906 3.25284C46.8106 2.1946 45.3461 1.60004 43.819 1.60004H33.5132C31.986 1.60004 30.5215 2.1946 29.4417 3.25284C28.3618 4.31108 27.7551 5.74643 27.7551 7.24291V17.3428C27.7551 18.8392 28.3618 20.2744 29.4417 21.3327C30.5215 22.3909 31.986 22.9855 33.5132 22.9855Z" fill="#00A6FB"/>
<path id="Vector_3" d="M74.2598 58.347H65.5404C61.9109 58.1162 58.4718 56.6405 55.8038 54.169L54.8229 53.1882C52.4042 50.4995 50.9807 47.0627 50.7902 43.4514V34.732C50.7806 33.2222 50.1767 31.777 49.1091 30.7093C48.0413 29.6416 46.5961 29.0376 45.0862 29.0282H36.3669C32.7672 28.8766 29.3293 27.4912 26.6304 25.1045L25.6495 24.1235C23.2307 21.435 21.8074 17.9982 21.6167 14.3869V5.704C21.6167 4.1912 21.0157 2.74032 19.9461 1.67056C18.8764 0.600963 17.4256 0 15.9128 0H5.70384C4.19118 0 2.74025 0.600963 1.67069 1.67056C0.60098 2.74032 0 4.1912 0 5.704V15.9128C0 17.4256 0.60098 18.8765 1.67069 19.9461C2.74025 21.0158 4.19118 21.6168 5.70384 21.6168H14.3869C18.0534 21.7845 21.5473 23.223 24.2689 25.6858L25.2498 26.6667C27.6609 29.36 29.0831 32.7939 29.2824 36.4032V45.1227C29.2919 46.6325 29.896 48.0778 30.9636 49.1453C32.0312 50.213 33.4766 50.817 34.9863 50.8266H43.7056C47.2771 51.0501 50.6687 52.4707 53.3334 54.8592L54.3143 55.8402C56.7254 58.5334 58.1476 61.9675 58.3469 65.5768V74.2962C58.3564 75.8061 58.9605 77.2512 60.0281 78.3189C61.0957 79.3866 62.5411 79.9904 64.0508 80H74.296C75.8059 79.9904 77.2513 79.3866 78.3189 78.3189C79.3865 77.2512 79.9905 75.8061 80 74.2962V64.0509C79.9904 62.5349 79.3814 61.084 78.306 60.0154C77.2305 58.9467 75.7758 58.3469 74.2598 58.347Z" fill="#00A6FB"/>
<path id="Vector_4" d="M16.826 57.6H6.03118C2.70024 57.6 0 60.0573 0 63.0885V72.9117C0 75.9429 2.70024 78.4 6.03118 78.4H16.826C20.1569 78.4 22.8571 75.9429 22.8571 72.9117V63.0885C22.8571 60.0573 20.1569 57.6 16.826 57.6Z" fill="#00A6FB"/>
<path id="Vector_5" d="M44.8542 57.0144H36.0887C32.4431 56.8258 28.9737 55.4178 26.2596 53.025L25.8929 52.7014C23.4434 50.0181 22.0067 46.5929 21.8219 42.9971V34.371C21.8038 32.9176 21.214 31.527 20.1755 30.4891C19.137 29.4513 17.7298 28.8462 16.2472 28.8H5.75804C4.23085 28.8 2.76636 29.3945 1.68653 30.4528C0.606689 31.511 0 32.9462 0 34.4429V44.5425C0 46.0392 0.606689 47.4744 1.68653 48.5328C2.76636 49.591 4.23085 50.1854 5.75804 50.1854H14.5602C18.2024 50.3883 21.6673 51.7945 24.3892 54.175L24.7193 54.5344C27.161 57.1942 28.5979 60.5942 28.7902 64.1669V72.7569C28.7902 73.5011 28.9404 74.2378 29.232 74.9246C29.5238 75.6117 29.9512 76.2353 30.4898 76.7598C31.0282 77.2843 31.6674 77.6992 32.3703 77.9806C33.0731 78.2621 33.8258 78.4046 34.585 78.3998H44.8542C46.3812 78.3998 47.8459 77.8054 48.9257 76.7472C50.0056 75.689 50.6122 74.2536 50.6122 72.7569V62.6573C50.6122 61.1608 50.0056 59.7254 48.9257 58.6672C47.8459 57.6089 46.3812 57.0144 44.8542 57.0144Z" fill="#00A6FB"/>
</g>
</svg>
